<svg width="8" height="8" viewBox="0 0 16 16" fill="none" xmlns="http://www.w3.org/2000/svg">
<path d="M14.5 3H7.70996L6.85999 2.15002L6.51001 2H1.51001L1.01001 2.5V6.5V13.5L1.51001 14H14.51L15.01 13.5V9V3.5L14.5 3ZM13.99 11.49V13H1.98999V11.49V7.48999V7H6.47998L6.82996 6.84998L7.68994 5.98999H14V7.48999L13.99 11.49ZM13.99 5H7.48999L7.14001 5.15002L6.28003 6.01001H2V3.01001H6.29004L7.14001 3.85999L7.5 4.01001H14L13.99 5Z" fill="#C5C5C5"/>
<path fill-rule="evenodd" clip-rule="evenodd" d="M5.56253 2.51577C3.46348 3.4501 2 5.55414 2 7.99999C2 11.3137 4.68629 14 8 14C11.3137 14 14 11.3137 14 7.99999C14 5.32519 12.2497 3.05919 9.83199 2.28482L9.52968 3.23832C11.5429 3.88454 13 5.7721 13 7.99999C13 10.7614 10.7614 13 8 13C5.23858 13 3 10.7614 3 7.99999C3 6.31104 3.83742 4.81767 5.11969 3.91245L5.56253 2.51577Z" fill="#C5C5C5"/>
<path fill-rule="evenodd" clip-rule="evenodd" d="M5 3H2V2H5.5L6 2.5V6H5V3Z" fill="#C5C5C5"/>
</svg>
