<svg width="16" height="16" viewBox="0 0 16 16" fill="none" xmlns="http://www.w3.org/2000/svg">
<g clip-path="url(#clip0)">
<path fill-rule="evenodd" clip-rule="evenodd" d="M7.71014 3H14.5002L15.0102 3.5V8.00717C14.6997 7.77276 14.3611 7.57372 14.0002 7.41604V5.98999H7.69012L6.83014 6.84998L6.48016 7H1.99017V7.48999V11.49V13H7.1002C7.1708 13.3478 7.2775 13.6825 7.41623 14H1.51019L1.01019 13.5V6.5V2.5L1.51019 2H6.51019L6.86017 2.15002L7.71014 3ZM7.49017 5H13.9902L14.0002 4.01001H7.50018L7.1402 3.85999L6.29022 3.01001H2.00018V6.01001H6.28021L7.1402 5.15002L7.49017 5Z" fill="#424242"/>
<g transform="translate(6.66667 6.66667) scale(0.66667)">
<path fill-rule="evenodd" clip-rule="evenodd" d="M5.56253 2.51577C3.46348 3.4501 2 5.55414 2 7.99999C2 11.3137 4.68629 14 8 14C11.3137 14 14 11.3137 14 7.99999C14 5.32519 12.2497 3.05919 9.83199 2.28482L9.52968 3.23832C11.5429 3.88454 13 5.7721 13 7.99999C13 10.7614 10.7614 13 8 13C5.23858 13 3 10.7614 3 7.99999C3 6.31104 3.83742 4.81767 5.11969 3.91245L5.56253 2.51577Z" fill="#424242"/>
<path fill-rule="evenodd" clip-rule="evenodd" d="M5 3H2V2H5.5L6 2.5V6H5V3Z" fill="#424242"/>
</g>
</g>
<defs>
<clipPath id="clip0">
<rect width="16" height="16" fill="white" transform="translate(0.000183105)"/>
</clipPath>
</defs>
</svg>
